<mxfile host="app.diagrams.net" modified="2020-09-23T12:24:33.418Z" agent="5.0 (Macintosh; Intel Mac OS X 10_15_3) AppleWebKit/537.36 (KHTML, like Gecko) Chrome/85.0.4183.102 Safari/537.36" etag="sEtOpZfmD7hiHf7ESAUL" version="13.7.5" type="github">
  <diagram id="oOUND9pGjrlU18bBXw5d" name="Page-1">
    <mxGraphModel dx="1298" dy="687" grid="1" gridSize="10" guides="1" tooltips="1" connect="1" arrows="1" fold="1" page="1" pageScale="1" pageWidth="827" pageHeight="1500" math="0" shadow="0">
      <root>
        <mxCell id="0" />
        <mxCell id="1" parent="0" />
        <mxCell id="e9wrsvjZN6LrBHvfq03S-2" value="列表项&amp;nbsp; 1" style="rounded=0;whiteSpace=wrap;html=1;dashed=1;fillColor=none;strokeWidth=2;strokeColor=#6B6B6B;" vertex="1" parent="1">
          <mxGeometry x="260" y="60" width="300" height="30" as="geometry" />
        </mxCell>
        <mxCell id="e9wrsvjZN6LrBHvfq03S-3" value="列表项&amp;nbsp; 2" style="rounded=0;whiteSpace=wrap;html=1;fillColor=none;strokeWidth=2;strokeColor=#6B6B6B;dashed=1;" vertex="1" parent="1">
          <mxGeometry x="260" y="100" width="300" height="30" as="geometry" />
        </mxCell>
        <mxCell id="e9wrsvjZN6LrBHvfq03S-6" value="列表项&amp;nbsp; 3" style="rounded=0;whiteSpace=wrap;html=1;fillColor=#dae8fc;strokeWidth=2;strokeColor=#6c8ebf;" vertex="1" parent="1">
          <mxGeometry x="260" y="140" width="300" height="30" as="geometry" />
        </mxCell>
        <mxCell id="e9wrsvjZN6LrBHvfq03S-7" value="列表项&amp;nbsp; 4" style="rounded=0;whiteSpace=wrap;html=1;fillColor=#dae8fc;strokeWidth=2;strokeColor=#6c8ebf;" vertex="1" parent="1">
          <mxGeometry x="260" y="180" width="300" height="30" as="geometry" />
        </mxCell>
        <mxCell id="e9wrsvjZN6LrBHvfq03S-8" value="列表项&amp;nbsp; 5" style="rounded=0;whiteSpace=wrap;html=1;fillColor=#dae8fc;strokeWidth=2;strokeColor=#6c8ebf;" vertex="1" parent="1">
          <mxGeometry x="260" y="220" width="300" height="30" as="geometry" />
        </mxCell>
        <mxCell id="e9wrsvjZN6LrBHvfq03S-9" value="列表项&amp;nbsp; 6" style="rounded=0;whiteSpace=wrap;html=1;fillColor=#dae8fc;strokeWidth=2;strokeColor=#6c8ebf;" vertex="1" parent="1">
          <mxGeometry x="260" y="260" width="300" height="30" as="geometry" />
        </mxCell>
        <mxCell id="e9wrsvjZN6LrBHvfq03S-10" value="列表项&amp;nbsp; 7" style="rounded=0;whiteSpace=wrap;html=1;fillColor=#dae8fc;strokeWidth=2;strokeColor=#6c8ebf;" vertex="1" parent="1">
          <mxGeometry x="260" y="300" width="300" height="30" as="geometry" />
        </mxCell>
        <mxCell id="e9wrsvjZN6LrBHvfq03S-11" value="列表项&amp;nbsp; 8" style="rounded=0;whiteSpace=wrap;html=1;fillColor=#dae8fc;strokeWidth=2;strokeColor=#6c8ebf;" vertex="1" parent="1">
          <mxGeometry x="260" y="340" width="300" height="30" as="geometry" />
        </mxCell>
        <mxCell id="e9wrsvjZN6LrBHvfq03S-12" value="列表项&amp;nbsp; 9" style="rounded=0;whiteSpace=wrap;html=1;fillColor=#dae8fc;strokeWidth=2;strokeColor=#6c8ebf;" vertex="1" parent="1">
          <mxGeometry x="260" y="380" width="300" height="30" as="geometry" />
        </mxCell>
        <mxCell id="e9wrsvjZN6LrBHvfq03S-13" value="列表项&amp;nbsp; 10" style="rounded=0;whiteSpace=wrap;html=1;fillColor=#dae8fc;strokeWidth=2;strokeColor=#6c8ebf;" vertex="1" parent="1">
          <mxGeometry x="260" y="420" width="300" height="30" as="geometry" />
        </mxCell>
        <mxCell id="e9wrsvjZN6LrBHvfq03S-14" value="列表项&amp;nbsp; 11" style="rounded=0;whiteSpace=wrap;html=1;fillColor=#dae8fc;strokeWidth=2;strokeColor=#6c8ebf;" vertex="1" parent="1">
          <mxGeometry x="260" y="460" width="300" height="30" as="geometry" />
        </mxCell>
        <mxCell id="e9wrsvjZN6LrBHvfq03S-15" value="列表项&amp;nbsp; 12" style="rounded=0;whiteSpace=wrap;html=1;fillColor=#dae8fc;strokeWidth=2;strokeColor=#6c8ebf;" vertex="1" parent="1">
          <mxGeometry x="260" y="500" width="300" height="30" as="geometry" />
        </mxCell>
        <mxCell id="e9wrsvjZN6LrBHvfq03S-16" value="列表项&amp;nbsp; 13" style="rounded=0;whiteSpace=wrap;html=1;fillColor=#dae8fc;strokeWidth=2;strokeColor=#6c8ebf;" vertex="1" parent="1">
          <mxGeometry x="260" y="540" width="300" height="30" as="geometry" />
        </mxCell>
        <mxCell id="e9wrsvjZN6LrBHvfq03S-17" value="列表项&amp;nbsp; 14" style="rounded=0;whiteSpace=wrap;html=1;fillColor=#dae8fc;strokeWidth=2;strokeColor=#6c8ebf;" vertex="1" parent="1">
          <mxGeometry x="260" y="581.5" width="300" height="30" as="geometry" />
        </mxCell>
        <mxCell id="e9wrsvjZN6LrBHvfq03S-18" value="列表项&amp;nbsp; 15" style="rounded=0;whiteSpace=wrap;html=1;fillColor=#dae8fc;strokeWidth=2;strokeColor=#6c8ebf;" vertex="1" parent="1">
          <mxGeometry x="260" y="620" width="300" height="30" as="geometry" />
        </mxCell>
        <mxCell id="e9wrsvjZN6LrBHvfq03S-19" value="列表项&amp;nbsp; 16" style="rounded=0;whiteSpace=wrap;html=1;fillColor=#dae8fc;strokeWidth=2;strokeColor=#6c8ebf;" vertex="1" parent="1">
          <mxGeometry x="260" y="660" width="300" height="30" as="geometry" />
        </mxCell>
        <mxCell id="e9wrsvjZN6LrBHvfq03S-20" value="列表项&amp;nbsp; 17" style="rounded=0;whiteSpace=wrap;html=1;fillColor=#dae8fc;strokeWidth=2;strokeColor=#6c8ebf;" vertex="1" parent="1">
          <mxGeometry x="260" y="700" width="300" height="30" as="geometry" />
        </mxCell>
        <mxCell id="e9wrsvjZN6LrBHvfq03S-21" value="列表项&amp;nbsp; 18" style="rounded=0;whiteSpace=wrap;html=1;fillColor=#dae8fc;strokeWidth=2;strokeColor=#6c8ebf;" vertex="1" parent="1">
          <mxGeometry x="260" y="740" width="300" height="30" as="geometry" />
        </mxCell>
        <mxCell id="e9wrsvjZN6LrBHvfq03S-22" value="列表项&amp;nbsp; 19" style="rounded=0;whiteSpace=wrap;html=1;fillColor=#dae8fc;strokeWidth=2;strokeColor=#6c8ebf;" vertex="1" parent="1">
          <mxGeometry x="260" y="780" width="300" height="30" as="geometry" />
        </mxCell>
        <mxCell id="e9wrsvjZN6LrBHvfq03S-23" value="列表项&amp;nbsp; 20" style="rounded=0;whiteSpace=wrap;html=1;fillColor=#dae8fc;strokeWidth=2;strokeColor=#6c8ebf;" vertex="1" parent="1">
          <mxGeometry x="260" y="820" width="300" height="30" as="geometry" />
        </mxCell>
        <mxCell id="e9wrsvjZN6LrBHvfq03S-24" value="列表项&amp;nbsp; 21" style="rounded=0;whiteSpace=wrap;html=1;fillColor=#dae8fc;strokeWidth=2;strokeColor=#6c8ebf;" vertex="1" parent="1">
          <mxGeometry x="260" y="860" width="300" height="30" as="geometry" />
        </mxCell>
        <mxCell id="e9wrsvjZN6LrBHvfq03S-25" value="列表项&amp;nbsp; 22" style="rounded=0;whiteSpace=wrap;html=1;fillColor=#dae8fc;strokeWidth=2;strokeColor=#6c8ebf;" vertex="1" parent="1">
          <mxGeometry x="260" y="900" width="300" height="30" as="geometry" />
        </mxCell>
        <mxCell id="e9wrsvjZN6LrBHvfq03S-26" value="列表项&amp;nbsp; 23" style="rounded=0;whiteSpace=wrap;html=1;fillColor=#dae8fc;strokeWidth=2;strokeColor=#6c8ebf;" vertex="1" parent="1">
          <mxGeometry x="260" y="941.5" width="300" height="30" as="geometry" />
        </mxCell>
        <mxCell id="e9wrsvjZN6LrBHvfq03S-27" value="列表项&amp;nbsp; 24" style="rounded=0;whiteSpace=wrap;html=1;fillColor=#dae8fc;strokeWidth=2;strokeColor=#6c8ebf;" vertex="1" parent="1">
          <mxGeometry x="260" y="980" width="300" height="30" as="geometry" />
        </mxCell>
        <mxCell id="e9wrsvjZN6LrBHvfq03S-28" value="列表项&amp;nbsp; 25" style="rounded=0;whiteSpace=wrap;html=1;fillColor=#dae8fc;strokeWidth=2;strokeColor=#6c8ebf;" vertex="1" parent="1">
          <mxGeometry x="260" y="1020" width="300" height="30" as="geometry" />
        </mxCell>
        <mxCell id="e9wrsvjZN6LrBHvfq03S-29" value="列表项&amp;nbsp; 26" style="rounded=0;whiteSpace=wrap;html=1;fillColor=none;strokeWidth=2;strokeColor=#6B6B6B;dashed=1;" vertex="1" parent="1">
          <mxGeometry x="260" y="1060" width="300" height="30" as="geometry" />
        </mxCell>
        <mxCell id="e9wrsvjZN6LrBHvfq03S-30" value="列表项&amp;nbsp; n" style="rounded=0;whiteSpace=wrap;html=1;fillColor=none;strokeWidth=2;strokeColor=#6B6B6B;dashed=1;" vertex="1" parent="1">
          <mxGeometry x="260" y="1130" width="300" height="30" as="geometry" />
        </mxCell>
        <mxCell id="e9wrsvjZN6LrBHvfq03S-31" value="&lt;b&gt;&lt;font style=&quot;font-size: 23px&quot;&gt;...&lt;/font&gt;&lt;/b&gt;" style="text;html=1;align=center;verticalAlign=middle;resizable=0;points=[];autosize=1;" vertex="1" parent="1">
          <mxGeometry x="395" y="1093" width="30" height="20" as="geometry" />
        </mxCell>
        <mxCell id="e9wrsvjZN6LrBHvfq03S-1" value="" style="rounded=0;whiteSpace=wrap;html=1;strokeWidth=3;fillColor=none;" vertex="1" parent="1">
          <mxGeometry x="245" y="310" width="330" height="560" as="geometry" />
        </mxCell>
        <mxCell id="e9wrsvjZN6LrBHvfq03S-32" value="" style="rounded=0;whiteSpace=wrap;html=1;fillColor=none;strokeWidth=2;strokeColor=#6B6B6B;dashed=1;" vertex="1" parent="1">
          <mxGeometry x="70" y="1320" width="100" height="30" as="geometry" />
        </mxCell>
        <mxCell id="e9wrsvjZN6LrBHvfq03S-33" value="" style="rounded=0;whiteSpace=wrap;html=1;fillColor=#dae8fc;strokeWidth=2;strokeColor=#6c8ebf;" vertex="1" parent="1">
          <mxGeometry x="70" y="1370" width="100" height="30" as="geometry" />
        </mxCell>
        <mxCell id="e9wrsvjZN6LrBHvfq03S-34" value="不渲染的列表项" style="text;html=1;align=center;verticalAlign=middle;resizable=0;points=[];autosize=1;fontSize=14;" vertex="1" parent="1">
          <mxGeometry x="190" y="1325" width="110" height="20" as="geometry" />
        </mxCell>
        <mxCell id="e9wrsvjZN6LrBHvfq03S-35" value="渲染的列表项" style="text;html=1;align=center;verticalAlign=middle;resizable=0;points=[];autosize=1;fontSize=14;" vertex="1" parent="1">
          <mxGeometry x="190" y="1373" width="100" height="20" as="geometry" />
        </mxCell>
        <mxCell id="e9wrsvjZN6LrBHvfq03S-36" value="&lt;font style=&quot;font-size: 20px&quot;&gt;renderStartIndex&lt;/font&gt;" style="text;html=1;align=center;verticalAlign=middle;resizable=0;points=[];autosize=1;fontSize=14;fontColor=#7EA6E0;" vertex="1" parent="1">
          <mxGeometry x="10" y="145" width="160" height="20" as="geometry" />
        </mxCell>
        <mxCell id="e9wrsvjZN6LrBHvfq03S-37" value="" style="shape=flexArrow;endArrow=classic;html=1;fontSize=14;labelBackgroundColor=#ffffff;fillColor=#000;" edge="1" parent="1">
          <mxGeometry width="50" height="50" relative="1" as="geometry">
            <mxPoint x="170" y="156" as="sourcePoint" />
            <mxPoint x="250" y="156" as="targetPoint" />
          </mxGeometry>
        </mxCell>
        <mxCell id="e9wrsvjZN6LrBHvfq03S-38" value="&lt;font style=&quot;font-size: 20px&quot;&gt;firstIndex&lt;/font&gt;" style="text;html=1;align=center;verticalAlign=middle;resizable=0;points=[];autosize=1;fontSize=14;fontColor=#7EA6E0;" vertex="1" parent="1">
          <mxGeometry x="40" y="300" width="100" height="20" as="geometry" />
        </mxCell>
        <mxCell id="e9wrsvjZN6LrBHvfq03S-39" value="" style="shape=flexArrow;endArrow=classic;html=1;fontSize=14;labelBackgroundColor=#ffffff;fillColor=#000;" edge="1" parent="1">
          <mxGeometry width="50" height="50" relative="1" as="geometry">
            <mxPoint x="170" y="311" as="sourcePoint" />
            <mxPoint x="250" y="311" as="targetPoint" />
          </mxGeometry>
        </mxCell>
        <mxCell id="e9wrsvjZN6LrBHvfq03S-40" value="&lt;font style=&quot;font-size: 20px&quot;&gt;lastIndex&lt;/font&gt;" style="text;html=1;align=center;verticalAlign=middle;resizable=0;points=[];autosize=1;fontSize=14;fontColor=#7EA6E0;" vertex="1" parent="1">
          <mxGeometry x="30" y="865" width="100" height="20" as="geometry" />
        </mxCell>
        <mxCell id="e9wrsvjZN6LrBHvfq03S-41" value="" style="shape=flexArrow;endArrow=classic;html=1;fontSize=14;labelBackgroundColor=#ffffff;fillColor=#000;" edge="1" parent="1">
          <mxGeometry width="50" height="50" relative="1" as="geometry">
            <mxPoint x="160" y="876" as="sourcePoint" />
            <mxPoint x="240" y="876" as="targetPoint" />
          </mxGeometry>
        </mxCell>
        <mxCell id="e9wrsvjZN6LrBHvfq03S-42" value="&lt;font style=&quot;font-size: 20px&quot;&gt;renderEndIndex&lt;/font&gt;" style="text;html=1;align=center;verticalAlign=middle;resizable=0;points=[];autosize=1;fontSize=14;fontColor=#7EA6E0;" vertex="1" parent="1">
          <mxGeometry x="5" y="1020" width="160" height="20" as="geometry" />
        </mxCell>
        <mxCell id="e9wrsvjZN6LrBHvfq03S-43" value="" style="shape=flexArrow;endArrow=classic;html=1;fontSize=14;labelBackgroundColor=#ffffff;fillColor=#000;" edge="1" parent="1">
          <mxGeometry width="50" height="50" relative="1" as="geometry">
            <mxPoint x="165" y="1031" as="sourcePoint" />
            <mxPoint x="245" y="1031" as="targetPoint" />
          </mxGeometry>
        </mxCell>
        <mxCell id="e9wrsvjZN6LrBHvfq03S-44" value="" style="shape=curlyBracket;whiteSpace=wrap;html=1;rounded=1;strokeColor=#6B6B6B;strokeWidth=2;fillColor=none;fontSize=14;fontColor=#7EA6E0;rotation=-180;" vertex="1" parent="1">
          <mxGeometry x="600" y="310" width="60" height="560" as="geometry" />
        </mxCell>
        <mxCell id="e9wrsvjZN6LrBHvfq03S-45" value="&lt;font color=&quot;#0f0f0f&quot;&gt;可视区域&lt;/font&gt;" style="text;html=1;align=center;verticalAlign=middle;resizable=0;points=[];autosize=1;fontSize=14;fontColor=#7EA6E0;" vertex="1" parent="1">
          <mxGeometry x="685" y="571.5" width="70" height="20" as="geometry" />
        </mxCell>
        <mxCell id="e9wrsvjZN6LrBHvfq03S-46" value="&lt;font color=&quot;#0f0f0f&quot;&gt;viewHeight&lt;/font&gt;" style="text;html=1;align=center;verticalAlign=middle;resizable=0;points=[];autosize=1;fontSize=14;fontColor=#7EA6E0;" vertex="1" parent="1">
          <mxGeometry x="685" y="591.5" width="80" height="20" as="geometry" />
        </mxCell>
        <mxCell id="e9wrsvjZN6LrBHvfq03S-47" value="" style="shape=curlyBracket;whiteSpace=wrap;html=1;rounded=1;strokeColor=#6B6B6B;strokeWidth=2;fillColor=none;fontSize=14;fontColor=#7EA6E0;rotation=-180;" vertex="1" parent="1">
          <mxGeometry x="580" y="140" width="50" height="150" as="geometry" />
        </mxCell>
        <mxCell id="e9wrsvjZN6LrBHvfq03S-48" value="&lt;font color=&quot;#0f0f0f&quot;&gt;缓冲区&lt;/font&gt;" style="text;html=1;align=center;verticalAlign=middle;resizable=0;points=[];autosize=1;fontSize=14;fontColor=#7EA6E0;" vertex="1" parent="1">
          <mxGeometry x="645" y="190" width="60" height="20" as="geometry" />
        </mxCell>
        <mxCell id="e9wrsvjZN6LrBHvfq03S-49" value="&lt;font color=&quot;#0f0f0f&quot;&gt;buffer&lt;/font&gt;" style="text;html=1;align=center;verticalAlign=middle;resizable=0;points=[];autosize=1;fontSize=14;fontColor=#7EA6E0;" vertex="1" parent="1">
          <mxGeometry x="650" y="210" width="50" height="20" as="geometry" />
        </mxCell>
        <mxCell id="e9wrsvjZN6LrBHvfq03S-50" value="" style="shape=curlyBracket;whiteSpace=wrap;html=1;rounded=1;strokeColor=#6B6B6B;strokeWidth=2;fillColor=none;fontSize=14;fontColor=#7EA6E0;rotation=-180;" vertex="1" parent="1">
          <mxGeometry x="580" y="890" width="50" height="150" as="geometry" />
        </mxCell>
        <mxCell id="e9wrsvjZN6LrBHvfq03S-51" value="&lt;font color=&quot;#0f0f0f&quot;&gt;缓冲区&lt;/font&gt;" style="text;html=1;align=center;verticalAlign=middle;resizable=0;points=[];autosize=1;fontSize=14;fontColor=#7EA6E0;" vertex="1" parent="1">
          <mxGeometry x="630" y="941.5" width="60" height="20" as="geometry" />
        </mxCell>
        <mxCell id="e9wrsvjZN6LrBHvfq03S-52" value="&lt;font color=&quot;#0f0f0f&quot;&gt;buffer&lt;/font&gt;" style="text;html=1;align=center;verticalAlign=middle;resizable=0;points=[];autosize=1;fontSize=14;fontColor=#7EA6E0;" vertex="1" parent="1">
          <mxGeometry x="635" y="961.5" width="50" height="20" as="geometry" />
        </mxCell>
      </root>
    </mxGraphModel>
  </diagram>
</mxfile>
